<?xml version="1.0" encoding="utf-8"?>
<!-- Generator: Adobe Illustrator 23.0.1, SVG Export Plug-In . SVG Version: 6.00 Build 0)  -->
<svg version="1.1" id="Layer_1" xmlns="http://www.w3.org/2000/svg" xmlns:xlink="http://www.w3.org/1999/xlink" x="0px" y="0px"
	 viewBox="0 0 600 600" style="enable-background:new 0 0 600 600;" xml:space="preserve">
<style type="text/css">
	.st0{fill:#6399A8;}
</style>
<g>
	<path class="st0" d="M232,282.7c-7.9,2.9-12.8,8.9-15.7,16.5c-4.3,11.4-4.6,23.1-2,34.9c1.4,6.6,4.3,12.5,8.9,17.5
		c11,12.1,35.6,12.4,45-7.2c3.6-7.5,4.9-15.5,5.1-23.8c-0.1-8.6-1.6-16.9-5.7-24.5C259.5,281.2,245.1,277.8,232,282.7z"/>
	<path class="st0" d="M195,132.1c-4.6,8.5-9.1,17.1-13.7,25.6c-16.9,31.3-33.9,62.5-50.8,93.8C92,322.7,53.5,393.9,14.9,465.1
		c-0.2,0.5-0.6,0.9-0.9,1.3c-0.2,0.6-0.4,1.3-0.6,2.2c1.2,0,2.1,0,3,0c127.9,0,255.8,0,383.7,0.1c2.4,0,3.6-0.8,4.6-2.8
		c23.4-43.3,46.9-86.7,70.3-130c36.2-66.8,72.4-133.6,108.6-200.4c0.3-0.6,1-1.1,1.4-1.7c0.1-0.5,0.1-1.1,0.2-1.6
		C455.3,132.1,325.2,132.1,195,132.1z M294.3,343.1c-2.5,9.1-6.6,17.4-13.3,24.2c-6.9,7-15.2,10.8-24.9,11.9c-0.2,0-0.4,0.1-0.6,0.2
		c-3.8,0-7.6,0-11.3,0c-0.2-0.1-0.4-0.2-0.6-0.2c-3.5-0.7-7.2-1-10.6-2c-8.7-2.4-15.6-7.4-19.8-15.7c-0.1-0.2-0.3-0.3-0.4-0.5
		c-0.1,0-0.2,0-0.3,0.1c0,5.1,0,10.2,0,15.3c-7.6,0-15.1,0-22.7,0c0-51.5,0-103,0-154.4c0-0.2,0.1-0.5,0.1-0.7c8,0,15.9,0,23.9,0
		c0,1.8,0,3.6,0,5.4c0,16.8,0,33.6,0,50.4c0,0.5,0,0.9,0,1.7c0.4-0.3,0.6-0.5,0.7-0.6c5.9-9,14.3-14.3,24.7-16.3
		c16-3.1,37.2,1.9,48.8,21.3c4.6,7.7,7.2,16,8.5,24.8C297.9,319.9,297.4,331.6,294.3,343.1z M409.2,301.7c-7.9,0-15.8,0-23.6,0
		c-0.1-0.2-0.1-0.3-0.2-0.4c-0.1-0.3-0.1-0.6-0.1-0.8c-1.6-8.5-5.9-14.9-14.2-18c-7.3-2.7-14.8-2.5-22,0.5
		c-7.4,3.1-11.9,8.9-14.7,16.2c-3,7.9-3.6,16.2-3.4,24.6c0.2,6.3,1.2,12.5,3.6,18.3c4,9.7,10.6,16.4,21.4,17.7
		c8.3,1,15.7-1,21.6-7.3c3.8-4.1,6-9.1,7.2-14.5c0.3-1.2,0.5-2.4,0.7-3.6c8,0,15.8,0,23.6,0c0,0.8,0,1.6,0,2.4
		c-0.1,0.2-0.2,0.4-0.3,0.6c-1.1,5.5-2.6,10.8-5,15.9c-6.6,14-17.5,22.4-32.8,25.3c-1.9,0.3-3.8,0.6-5.6,0.9c-3.9,0-7.9,0-11.8,0
		c-1.8-0.3-3.6-0.6-5.4-0.9c-16.3-3.1-28-12.2-35.2-27.2c-5-10.5-6.5-21.6-6.1-33.1c0.3-9.6,2-19,6.1-27.8
		c7.4-16.2,19.9-25.8,37.5-28.5c11.4-1.8,22.6-0.9,33.2,3.6c14.4,6.1,22.7,17.1,25.1,32.5c0,0.2,0.1,0.3,0.2,0.5
		C409.2,299.6,409.2,300.7,409.2,301.7z"/>
</g>
</svg>
