<?xml version="1.0" encoding="utf-8"?>
<!-- Generator: Adobe Illustrator 23.0.1, SVG Export Plug-In . SVG Version: 6.00 Build 0)  -->
<svg version="1.1" id="Layer_1" xmlns="http://www.w3.org/2000/svg" xmlns:xlink="http://www.w3.org/1999/xlink" x="0px" y="0px"
	 viewBox="0 0 1792 1792" style="enable-background:new 0 0 1792 1792;" xml:space="preserve">
<style type="text/css">
	.st0{fill:#FFFFFF;}
</style>
<path class="st0" d="M1255,1210c0-21.3-10-38.3-30-51c-128.7-76.7-277.7-115-447-115c-88.7,0-184.3,11.3-287,34c-28,6-42,23.3-42,52
	c0,13.3,4.5,24.8,13.5,34.5s20.8,14.5,35.5,14.5c3.3,0,15.7-2.7,37-8c88-18,169-27,243-27c150.7,0,283,34.3,397,103
	c12.7,7.3,23.7,11,33,11c12.7,0,23.7-4.5,33-13.5S1255,1224,1255,1210z M1351,995c0-26.7-11.7-47-35-61c-158-94-340.7-141-548-141
	c-102,0-203,14-303,42c-32,8.7-48,30-48,64c0,16.7,5.8,30.8,17.5,42.5S460.3,959,477,959c4.7,0,17-2.7,37-8c81.3-22,165-33,251-33
	c186,0,348.7,41.3,488,124c16,8.7,28.7,13,38,13c16.7,0,30.8-5.8,42.5-17.5S1351,1011.7,1351,995z M1459,747c0-31.3-13.3-54.7-40-70
	c-84-48.7-181.7-85.5-293-110.5S900.3,529,783,529c-136,0-257.3,15.7-364,47c-15.3,4.7-28.2,13.2-38.5,25.5S365,630,365,650
	c0,20.7,6.8,38,20.5,52s30.8,21,51.5,21c7.3,0,20.7-2.7,40-8c88.7-24.7,191-37,307-37c106,0,209.2,11.3,309.5,34
	s184.8,54.3,253.5,95c14,8,27.3,12,40,12c19.3,0,36.2-6.8,50.5-20.5S1459,767.7,1459,747z M1664,896c0,139.3-34.3,267.8-103,385.5
	s-161.8,210.8-279.5,279.5s-246.2,103-385.5,103s-267.8-34.3-385.5-103S299.7,1399.2,231,1281.5S128,1035.3,128,896
	s34.3-267.8,103-385.5S392.8,299.7,510.5,231S756.7,128,896,128s267.8,34.3,385.5,103s210.8,161.8,279.5,279.5S1664,756.7,1664,896z
	"/>
</svg>
