<?xml version="1.0" encoding="utf-8"?>
<!-- Generator: Adobe Illustrator 23.0.1, SVG Export Plug-In . SVG Version: 6.00 Build 0)  -->
<svg version="1.1" id="Layer_1" xmlns="http://www.w3.org/2000/svg" xmlns:xlink="http://www.w3.org/1999/xlink" x="0px" y="0px"
	 viewBox="0 0 1800 1800" style="enable-background:new 0 0 1800 1800;" xml:space="preserve">
<style type="text/css">
	.st0{fill:#FFFFFF;}
</style>
<g>
	<g>
		<path class="st0" d="M363.9,1188.2c-9.5-17.5-18.1-35.4-25.7-53.2c-7.6-18-14.5-36.8-20.4-55.9c-5.9-18.9-11-38.6-15-58.4
			c-4.1-20-7.2-40.3-9.2-60.5c-2.1-20.5-3.1-41.4-3.1-62.2c0-20.8,1.1-41.7,3.1-62.2c2-20.1,5.2-40.4,9.2-60.4
			c4-19.8,9.1-39.4,15-58.4c5.9-18.9,12.8-37.7,20.5-55.9c7.6-18,16.2-35.9,25.7-53.2l75.1,40.8c-8.1,14.8-15.5,30.2-22,45.7
			c-6.6,15.6-12.5,31.8-17.6,48c-5.1,16.3-9.4,33.2-12.9,50.1c-3.5,17.2-6.2,34.7-7.9,52c-1.8,17.6-2.7,35.6-2.7,53.5
			c0,17.9,0.9,36,2.7,53.6c1.8,17.3,4.4,34.8,7.9,52c3.5,17,7.8,33.9,12.9,50.1c5.1,16.4,11,32.6,17.6,48
			c6.5,15.3,13.9,30.7,22,45.8L363.9,1188.2z M1434.5,1188.2l-75.1-40.7c8.3-15.3,15.7-30.7,22-45.7c6.7-15.8,12.6-32,17.7-48.1
			c5-16.2,9.3-33.1,12.8-50.1c3.5-16.9,6.1-34.4,7.9-52c1.8-17.8,2.7-35.9,2.7-53.6c0-17.7-0.9-35.7-2.7-53.5
			c-1.8-17.6-4.4-35-7.9-52c-3.5-17-7.8-33.8-12.8-50.2c-5-16-10.9-32.2-17.6-48c-6.4-15.3-13.8-30.7-22-45.8l75.1-40.8
			c9.5,17.6,18.2,35.5,25.7,53.3c7.8,18.3,14.7,37.2,20.5,55.9c5.9,19,10.9,38.7,14.9,58.3c4,19.7,7.2,40,9.2,60.4
			c2.1,20.7,3.2,41.6,3.2,62.2c0,20.6-1.1,41.5-3.2,62.2c-2.1,20.5-5.2,40.8-9.2,60.5c-4,19.7-9.1,39.3-14.9,58.3
			c-5.9,18.9-12.8,37.7-20.5,56C1452.8,1152.5,1444.1,1170.4,1434.5,1188.2z"/>
	</g>
	<g>
		<path class="st0" d="M901.1,1198.2c-164.3,0-298-133.7-298-298c0-164.3,133.7-298,298-298c164.3,0,298,133.7,298,298
			C1199.2,1064.5,1065.5,1198.2,901.1,1198.2z M901.1,687.3c-117.4,0-212.9,95.5-212.9,212.9S783.8,1113,901.1,1113
			c117.4,0,212.9-95.5,212.9-212.9S1018.5,687.3,901.1,687.3z"/>
	</g>
	<g>
		<path class="st0" d="M901.1,1044.9c-79.8,0-144.8-64.9-144.8-144.8s64.9-144.8,144.8-144.8s144.8,64.9,144.8,144.8
			C1045.9,980,981,1044.9,901.1,1044.9z M901.1,840.5c-32.9,0-59.6,26.7-59.6,59.6c0,32.9,26.7,59.6,59.6,59.6s59.6-26.7,59.6-59.6
			C960.7,867.3,934,840.5,901.1,840.5z"/>
	</g>
	<g>
		<path class="st0" d="M901.1,1351c-248.6,0-450.9-202.3-450.9-450.9c0-248.6,202.3-450.9,450.9-450.9
			c248.6,0,450.9,202.3,450.9,450.9C1352.1,1148.8,1149.8,1351,901.1,1351z M901.1,534.4c-201.7,0-365.8,164.1-365.8,365.8
			c0,201.7,164.1,365.8,365.8,365.8c201.7,0,365.8-164.1,365.8-365.8C1266.9,698.4,1102.8,534.4,901.1,534.4z"/>
	</g>
	<g>
		<g>
			<path class="st0" d="M1773.5,898.1c0,0-326.4-449.6-872.4-449.6c-546,0-873,449.6-873,449.6h112c0,0,297.5-365,761-365
				c463.5,0,761,365,761,365H1773.5z"/>
		</g>
		<g>
			<path class="st0" d="M1773.5,898c0,0-326.4,449.6-872.4,449.6c-546,0-873-449.5-873-449.5h112c0,0,297.5,365,761,365
				c463.5,0,761-365,761-365H1773.5z"/>
		</g>
	</g>
</g>
</svg>
